<mxfile host="Electron" agent="Mozilla/5.0 (Windows NT 10.0; Win64; x64) AppleWebKit/537.36 (KHTML, like Gecko) draw.io/28.0.6 Chrome/138.0.7204.100 Electron/37.2.3 Safari/537.36" version="28.0.6">
  <diagram name="Page-1" id="rXZZZIACbgmzUM-M-vQp">
    <mxGraphModel dx="1426" dy="841" grid="0" gridSize="10" guides="1" tooltips="1" connect="1" arrows="1" fold="1" page="1" pageScale="1" pageWidth="1400" pageHeight="850" math="0" shadow="0">
      <root>
        <mxCell id="0" />
        <mxCell id="1" parent="0" />
        <mxCell id="Dp_7WOcxqssjCr4-4xel-1" value="" style="rounded=1;whiteSpace=wrap;html=1;fillColor=none;dashed=1;dashPattern=1 2;" parent="1" vertex="1">
          <mxGeometry x="57" y="180" width="447" height="358" as="geometry" />
        </mxCell>
        <mxCell id="Dp_7WOcxqssjCr4-4xel-2" value="&lt;b&gt;&lt;font style=&quot;font-size: 19px;&quot;&gt;CRM&lt;/font&gt;&lt;/b&gt;" style="rounded=1;whiteSpace=wrap;html=1;fillColor=#dae8fc;strokeColor=#6c8ebf;" parent="1" vertex="1">
          <mxGeometry x="239" y="165" width="140" height="30" as="geometry" />
        </mxCell>
        <mxCell id="Dp_7WOcxqssjCr4-4xel-3" value="&lt;span style=&quot;background-color: rgb(218, 232, 252);&quot;&gt;crm_sales_details&lt;/span&gt;" style="swimlane;fontStyle=1;childLayout=stackLayout;horizontal=1;startSize=20;horizontalStack=0;resizeParent=1;resizeParentMax=0;resizeLast=0;collapsible=1;marginBottom=0;whiteSpace=wrap;html=1;rounded=1;arcSize=11;fontSize=14;labelBackgroundColor=default;strokeColor=#C7E9FF;shadow=0;glass=0;fillColor=#dae8fc;fillStyle=auto;backgroundOutline=0;" parent="1" vertex="1">
          <mxGeometry x="93" y="298" width="160" height="81" as="geometry" />
        </mxCell>
        <mxCell id="Dp_7WOcxqssjCr4-4xel-4" value="prd_key" style="text;strokeColor=none;fillColor=none;align=left;verticalAlign=middle;spacingLeft=4;spacingRight=4;overflow=hidden;points=[[0,0.5],[1,0.5]];portConstraint=eastwest;rotatable=0;whiteSpace=wrap;html=1;strokeWidth=0;" parent="Dp_7WOcxqssjCr4-4xel-3" vertex="1">
          <mxGeometry y="20" width="160" height="20" as="geometry" />
        </mxCell>
        <mxCell id="Dp_7WOcxqssjCr4-4xel-5" value="cst_id" style="text;strokeColor=none;fillColor=none;align=left;verticalAlign=middle;spacingLeft=4;spacingRight=4;overflow=hidden;points=[[0,0.5],[1,0.5]];portConstraint=eastwest;rotatable=0;whiteSpace=wrap;html=1;" parent="Dp_7WOcxqssjCr4-4xel-3" vertex="1">
          <mxGeometry y="40" width="160" height="20" as="geometry" />
        </mxCell>
        <mxCell id="Nazr_5nxodMDITYjc9v_-8" value="Sales" style="rounded=0;whiteSpace=wrap;html=1;fillColor=#e1d5e7;strokeColor=#9673a6;" parent="Dp_7WOcxqssjCr4-4xel-3" vertex="1">
          <mxGeometry y="60" width="160" height="21" as="geometry" />
        </mxCell>
        <mxCell id="Dp_7WOcxqssjCr4-4xel-10" value="&lt;span style=&quot;background-color: rgb(218, 232, 252);&quot;&gt;crm_prd_info&lt;/span&gt;" style="swimlane;fontStyle=1;childLayout=stackLayout;horizontal=1;startSize=20;horizontalStack=0;resizeParent=1;resizeParentMax=0;resizeLast=0;collapsible=1;marginBottom=0;whiteSpace=wrap;html=1;rounded=1;arcSize=11;fontSize=14;labelBackgroundColor=default;strokeColor=#C7E9FF;shadow=0;glass=0;fillColor=#dae8fc;fillStyle=auto;backgroundOutline=0;" parent="1" vertex="1">
          <mxGeometry x="317" y="230" width="160" height="61" as="geometry" />
        </mxCell>
        <mxCell id="Dp_7WOcxqssjCr4-4xel-11" value="prd_key" style="text;strokeColor=none;fillColor=none;align=left;verticalAlign=middle;spacingLeft=4;spacingRight=4;overflow=hidden;points=[[0,0.5],[1,0.5]];portConstraint=eastwest;rotatable=0;whiteSpace=wrap;html=1;strokeWidth=0;" parent="Dp_7WOcxqssjCr4-4xel-10" vertex="1">
          <mxGeometry y="20" width="160" height="20" as="geometry" />
        </mxCell>
        <mxCell id="Nazr_5nxodMDITYjc9v_-1" value="Product" style="rounded=0;whiteSpace=wrap;html=1;fillColor=#f8cecc;strokeColor=#b85450;" parent="Dp_7WOcxqssjCr4-4xel-10" vertex="1">
          <mxGeometry y="40" width="160" height="21" as="geometry" />
        </mxCell>
        <mxCell id="Dp_7WOcxqssjCr4-4xel-13" value="&lt;span style=&quot;background-color: rgb(218, 232, 252);&quot;&gt;crm_cust_info&lt;/span&gt;" style="swimlane;fontStyle=1;childLayout=stackLayout;horizontal=1;startSize=20;horizontalStack=0;resizeParent=1;resizeParentMax=0;resizeLast=0;collapsible=1;marginBottom=0;whiteSpace=wrap;html=1;rounded=1;arcSize=11;fontSize=14;labelBackgroundColor=default;strokeColor=#C7E9FF;shadow=0;glass=0;fillColor=#dae8fc;fillStyle=auto;backgroundOutline=0;" parent="1" vertex="1">
          <mxGeometry x="319" y="371" width="160" height="81" as="geometry" />
        </mxCell>
        <mxCell id="Dp_7WOcxqssjCr4-4xel-14" value="cst_id" style="text;strokeColor=none;fillColor=none;align=left;verticalAlign=middle;spacingLeft=4;spacingRight=4;overflow=hidden;points=[[0,0.5],[1,0.5]];portConstraint=eastwest;rotatable=0;whiteSpace=wrap;html=1;strokeWidth=0;" parent="Dp_7WOcxqssjCr4-4xel-13" vertex="1">
          <mxGeometry y="20" width="160" height="20" as="geometry" />
        </mxCell>
        <mxCell id="Dp_7WOcxqssjCr4-4xel-15" value="cst_key" style="text;strokeColor=none;fillColor=none;align=left;verticalAlign=middle;spacingLeft=4;spacingRight=4;overflow=hidden;points=[[0,0.5],[1,0.5]];portConstraint=eastwest;rotatable=0;whiteSpace=wrap;html=1;" parent="Dp_7WOcxqssjCr4-4xel-13" vertex="1">
          <mxGeometry y="40" width="160" height="20" as="geometry" />
        </mxCell>
        <mxCell id="Nazr_5nxodMDITYjc9v_-5" value="Customer" style="rounded=0;whiteSpace=wrap;html=1;fillColor=#d5e8d4;strokeColor=#82b366;" parent="Dp_7WOcxqssjCr4-4xel-13" vertex="1">
          <mxGeometry y="60" width="160" height="21" as="geometry" />
        </mxCell>
        <mxCell id="Dp_7WOcxqssjCr4-4xel-39" value="" style="rounded=1;whiteSpace=wrap;html=1;fillColor=none;dashed=1;dashPattern=1 2;" parent="1" vertex="1">
          <mxGeometry x="528" y="180" width="291" height="354" as="geometry" />
        </mxCell>
        <mxCell id="Dp_7WOcxqssjCr4-4xel-40" value="&lt;b&gt;&lt;font style=&quot;font-size: 19px;&quot;&gt;ERP&lt;/font&gt;&lt;/b&gt;" style="rounded=1;whiteSpace=wrap;html=1;fillColor=#fff2cc;strokeColor=#A09965;" parent="1" vertex="1">
          <mxGeometry x="614" y="162" width="140" height="30" as="geometry" />
        </mxCell>
        <mxCell id="Dp_7WOcxqssjCr4-4xel-41" value="&lt;span style=&quot;background-color: rgb(255, 242, 204);&quot;&gt;erp_cust_az12&lt;/span&gt;" style="swimlane;fontStyle=1;childLayout=stackLayout;horizontal=1;startSize=20;horizontalStack=0;resizeParent=1;resizeParentMax=0;resizeLast=0;collapsible=1;marginBottom=0;whiteSpace=wrap;html=1;rounded=1;arcSize=11;fontSize=14;labelBackgroundColor=default;strokeColor=#d6b656;shadow=0;glass=0;fillColor=#fff2cc;fillStyle=auto;backgroundOutline=0;" parent="1" vertex="1">
          <mxGeometry x="604" y="330" width="160" height="61" as="geometry" />
        </mxCell>
        <mxCell id="Dp_7WOcxqssjCr4-4xel-43" value="cid" style="text;strokeColor=none;fillColor=none;align=left;verticalAlign=middle;spacingLeft=4;spacingRight=4;overflow=hidden;points=[[0,0.5],[1,0.5]];portConstraint=eastwest;rotatable=0;whiteSpace=wrap;html=1;" parent="Dp_7WOcxqssjCr4-4xel-41" vertex="1">
          <mxGeometry y="20" width="160" height="20" as="geometry" />
        </mxCell>
        <mxCell id="Nazr_5nxodMDITYjc9v_-6" value="Customer" style="rounded=0;whiteSpace=wrap;html=1;fillColor=#d5e8d4;strokeColor=#82b366;" parent="Dp_7WOcxqssjCr4-4xel-41" vertex="1">
          <mxGeometry y="40" width="160" height="21" as="geometry" />
        </mxCell>
        <mxCell id="Dp_7WOcxqssjCr4-4xel-44" value="&lt;span style=&quot;background-color: rgb(255, 242, 204);&quot;&gt;erp_px_cat_g1v2&lt;/span&gt;" style="swimlane;fontStyle=1;childLayout=stackLayout;horizontal=1;startSize=20;horizontalStack=0;resizeParent=1;resizeParentMax=0;resizeLast=0;collapsible=1;marginBottom=0;whiteSpace=wrap;html=1;rounded=1;arcSize=11;fontSize=14;labelBackgroundColor=default;strokeColor=#d6b656;shadow=0;glass=0;fillColor=#fff2cc;fillStyle=auto;backgroundOutline=0;" parent="1" vertex="1">
          <mxGeometry x="604" y="220" width="160" height="61" as="geometry" />
        </mxCell>
        <mxCell id="Dp_7WOcxqssjCr4-4xel-46" value="&lt;div&gt;&lt;span style=&quot;background-color: transparent; color: light-dark(rgb(0, 0, 0), rgb(255, 255, 255));&quot;&gt;id&lt;/span&gt;&lt;/div&gt;" style="text;strokeColor=none;fillColor=none;align=left;verticalAlign=middle;spacingLeft=4;spacingRight=4;overflow=hidden;points=[[0,0.5],[1,0.5]];portConstraint=eastwest;rotatable=0;whiteSpace=wrap;html=1;" parent="Dp_7WOcxqssjCr4-4xel-44" vertex="1">
          <mxGeometry y="20" width="160" height="20" as="geometry" />
        </mxCell>
        <mxCell id="Nazr_5nxodMDITYjc9v_-2" value="Product" style="rounded=0;whiteSpace=wrap;html=1;fillColor=#f8cecc;strokeColor=#b85450;" parent="Dp_7WOcxqssjCr4-4xel-44" vertex="1">
          <mxGeometry y="40" width="160" height="21" as="geometry" />
        </mxCell>
        <mxCell id="Dp_7WOcxqssjCr4-4xel-47" value="&lt;span style=&quot;background-color: rgb(255, 242, 204);&quot;&gt;erp_loc_a101&lt;/span&gt;" style="swimlane;fontStyle=1;childLayout=stackLayout;horizontal=1;startSize=20;horizontalStack=0;resizeParent=1;resizeParentMax=0;resizeLast=0;collapsible=1;marginBottom=0;whiteSpace=wrap;html=1;rounded=1;arcSize=11;fontSize=14;labelBackgroundColor=default;strokeColor=#D6B656;shadow=0;glass=0;fillColor=#fff2cc;fillStyle=auto;backgroundOutline=0;" parent="1" vertex="1">
          <mxGeometry x="604" y="438" width="160" height="61" as="geometry" />
        </mxCell>
        <mxCell id="Dp_7WOcxqssjCr4-4xel-49" value="c&lt;span style=&quot;background-color: transparent; color: light-dark(rgb(0, 0, 0), rgb(255, 255, 255));&quot;&gt;id&lt;/span&gt;" style="text;strokeColor=none;fillColor=none;align=left;verticalAlign=middle;spacingLeft=4;spacingRight=4;overflow=hidden;points=[[0,0.5],[1,0.5]];portConstraint=eastwest;rotatable=0;whiteSpace=wrap;html=1;" parent="Dp_7WOcxqssjCr4-4xel-47" vertex="1">
          <mxGeometry y="20" width="160" height="20" as="geometry" />
        </mxCell>
        <mxCell id="Nazr_5nxodMDITYjc9v_-7" value="Customer" style="rounded=0;whiteSpace=wrap;html=1;fillColor=#d5e8d4;strokeColor=#82b366;" parent="Dp_7WOcxqssjCr4-4xel-47" vertex="1">
          <mxGeometry y="40" width="160" height="21" as="geometry" />
        </mxCell>
        <mxCell id="Em34fGeTyZQRKbTaVNwf-1" value="" style="edgeStyle=elbowEdgeStyle;elbow=horizontal;endArrow=classic;html=1;curved=0;rounded=0;endSize=8;startSize=8;" parent="1" target="Dp_7WOcxqssjCr4-4xel-11" edge="1" source="Dp_7WOcxqssjCr4-4xel-4">
          <mxGeometry width="50" height="50" relative="1" as="geometry">
            <mxPoint x="285" y="308" as="sourcePoint" />
            <mxPoint x="724" y="401" as="targetPoint" />
          </mxGeometry>
        </mxCell>
        <mxCell id="Em34fGeTyZQRKbTaVNwf-2" value="" style="edgeStyle=elbowEdgeStyle;elbow=horizontal;endArrow=classic;html=1;curved=0;rounded=0;endSize=8;startSize=8;" parent="1" source="Dp_7WOcxqssjCr4-4xel-5" target="Dp_7WOcxqssjCr4-4xel-14" edge="1">
          <mxGeometry width="50" height="50" relative="1" as="geometry">
            <mxPoint x="674" y="451" as="sourcePoint" />
            <mxPoint x="724" y="401" as="targetPoint" />
          </mxGeometry>
        </mxCell>
        <mxCell id="Em34fGeTyZQRKbTaVNwf-3" value="" style="edgeStyle=elbowEdgeStyle;elbow=horizontal;endArrow=classic;html=1;curved=0;rounded=0;endSize=8;startSize=8;" parent="1" target="Dp_7WOcxqssjCr4-4xel-11" edge="1">
          <mxGeometry width="50" height="50" relative="1" as="geometry">
            <mxPoint x="604" y="250" as="sourcePoint" />
            <mxPoint x="724" y="401" as="targetPoint" />
          </mxGeometry>
        </mxCell>
        <mxCell id="Em34fGeTyZQRKbTaVNwf-4" value="" style="edgeStyle=elbowEdgeStyle;elbow=horizontal;endArrow=classic;html=1;curved=0;rounded=0;endSize=8;startSize=8;entryX=1;entryY=0.3;entryDx=0;entryDy=0;entryPerimeter=0;" parent="1" source="Dp_7WOcxqssjCr4-4xel-49" target="Dp_7WOcxqssjCr4-4xel-15" edge="1">
          <mxGeometry width="50" height="50" relative="1" as="geometry">
            <mxPoint x="608" y="429" as="sourcePoint" />
            <mxPoint x="489" y="379" as="targetPoint" />
          </mxGeometry>
        </mxCell>
        <mxCell id="Em34fGeTyZQRKbTaVNwf-5" value="&lt;font style=&quot;font-size: 32px;&quot;&gt;&lt;b style=&quot;&quot;&gt;Integration Model&lt;/b&gt;&lt;/font&gt; How Tables are connected" style="rounded=0;whiteSpace=wrap;html=1;strokeColor=none;fillColor=none;" parent="1" vertex="1">
          <mxGeometry x="58" y="103" width="516" height="64" as="geometry" />
        </mxCell>
        <mxCell id="Em34fGeTyZQRKbTaVNwf-6" value="" style="edgeStyle=elbowEdgeStyle;elbow=horizontal;endArrow=classic;html=1;curved=0;rounded=0;endSize=8;startSize=8;exitX=0;exitY=0.5;exitDx=0;exitDy=0;" parent="1" source="Dp_7WOcxqssjCr4-4xel-43" target="Dp_7WOcxqssjCr4-4xel-14" edge="1">
          <mxGeometry width="50" height="50" relative="1" as="geometry">
            <mxPoint x="674" y="412" as="sourcePoint" />
            <mxPoint x="724" y="362" as="targetPoint" />
          </mxGeometry>
        </mxCell>
        <mxCell id="Nazr_5nxodMDITYjc9v_-9" value="Transactional Records about Sales &amp;amp; Orders" style="rounded=0;whiteSpace=wrap;html=1;fillColor=none;strokeColor=none;" parent="1" vertex="1">
          <mxGeometry x="91.5" y="267" width="163" height="33" as="geometry" />
        </mxCell>
        <mxCell id="Nazr_5nxodMDITYjc9v_-10" value="Current &amp;amp; History Product info" style="rounded=0;whiteSpace=wrap;html=1;fillColor=none;strokeColor=none;" parent="1" vertex="1">
          <mxGeometry x="312" y="210" width="163" height="20" as="geometry" />
        </mxCell>
        <mxCell id="Nazr_5nxodMDITYjc9v_-11" value="Customer info" style="rounded=0;whiteSpace=wrap;html=1;fillColor=none;strokeColor=none;" parent="1" vertex="1">
          <mxGeometry x="319" y="356" width="160" height="14" as="geometry" />
        </mxCell>
        <mxCell id="Nazr_5nxodMDITYjc9v_-12" value="Product Categories" style="rounded=0;whiteSpace=wrap;html=1;fillColor=none;strokeColor=none;" parent="1" vertex="1">
          <mxGeometry x="602.5" y="202" width="163" height="20" as="geometry" />
        </mxCell>
        <mxCell id="Nazr_5nxodMDITYjc9v_-13" value="Customer info (Birthdate)" style="rounded=0;whiteSpace=wrap;html=1;fillColor=none;strokeColor=none;" parent="1" vertex="1">
          <mxGeometry x="602.5" y="312" width="163" height="20" as="geometry" />
        </mxCell>
        <mxCell id="Nazr_5nxodMDITYjc9v_-14" value="Customer info (Locations)" style="rounded=0;whiteSpace=wrap;html=1;fillColor=none;strokeColor=none;" parent="1" vertex="1">
          <mxGeometry x="602.5" y="421" width="163" height="20" as="geometry" />
        </mxCell>
      </root>
    </mxGraphModel>
  </diagram>
</mxfile>
